<svg width="25" height="24" viewBox="0 0 25 24" fill="none" xmlns="http://www.w3.org/2000/svg">
<path d="M19.2577 17H21.2848C21.8929 17 22.2983 16.6 22.2983 16V13C22.2983 12.1 21.5889 11.3 20.778 11.1C18.9536 10.6 16.217 10 16.217 10C16.217 10 14.8994 8.6 13.9872 7.7C13.4805 7.3 12.8723 7 12.1628 7H5.06799C4.45986 7 3.95309 7.4 3.64902 7.9L2.23005 10.8C2.09584 11.1862 2.02734 11.5917 2.02734 12V16C2.02734 16.6 2.43276 17 3.04089 17H5.06799" stroke="#A2B615" stroke-width="2" stroke-linecap="round" stroke-linejoin="round"/>
<path d="M7.09497 19C8.21451 19 9.12207 18.1046 9.12207 17C9.12207 15.8954 8.21451 15 7.09497 15C5.97543 15 5.06787 15.8954 5.06787 17C5.06787 18.1046 5.97543 19 7.09497 19Z" stroke="#A2B615" stroke-width="2" stroke-linecap="round" stroke-linejoin="round"/>
<path d="M9.12207 17H15.2034" stroke="#A2B615" stroke-width="2" stroke-linecap="round" stroke-linejoin="round"/>
<path d="M17.2302 19C18.3498 19 19.2573 18.1046 19.2573 17C19.2573 15.8954 18.3498 15 17.2302 15C16.1107 15 15.2031 15.8954 15.2031 17C15.2031 18.1046 16.1107 19 17.2302 19Z" stroke="#A2B615" stroke-width="2" stroke-linecap="round" stroke-linejoin="round"/>
</svg>
