<svg width="14" height="14" viewBox="0 0 14 14" fill="none" xmlns="http://www.w3.org/2000/svg">
<path d="M2.24582 5.02834C2.16068 4.64481 2.17375 4.246 2.28383 3.86887C2.39391 3.49174 2.59743 3.14852 2.87551 2.87101C3.1536 2.5935 3.49725 2.39071 3.87461 2.28142C4.25197 2.17213 4.65081 2.15989 5.03416 2.24584C5.24515 1.91585 5.53583 1.64428 5.87938 1.45617C6.22293 1.26806 6.60831 1.16946 6.99999 1.16946C7.39167 1.16946 7.77705 1.26806 8.1206 1.45617C8.46415 1.64428 8.75483 1.91585 8.96582 2.24584C9.34975 2.15952 9.74928 2.1717 10.1272 2.28126C10.5052 2.39081 10.8493 2.59417 11.1276 2.87243C11.4058 3.15069 11.6092 3.4948 11.7187 3.87276C11.8283 4.25072 11.8405 4.65024 11.7542 5.03417C12.0841 5.24517 12.3557 5.53584 12.5438 5.87939C12.7319 6.22295 12.8305 6.60833 12.8305 7.00001C12.8305 7.39169 12.7319 7.77707 12.5438 8.12062C12.3557 8.46417 12.0841 8.75484 11.7542 8.96584C11.8401 9.34919 11.8279 9.74803 11.7186 10.1254C11.6093 10.5027 11.4065 10.8464 11.129 11.1245C10.8515 11.4026 10.5083 11.6061 10.1311 11.7162C9.754 11.8262 9.35518 11.8393 8.97166 11.7542C8.76093 12.0854 8.47004 12.3582 8.1259 12.5471C7.78176 12.7361 7.39551 12.8351 7.00291 12.8351C6.61031 12.8351 6.22406 12.7361 5.87992 12.5471C5.53578 12.3582 5.24488 12.0854 5.03416 11.7542C4.65081 11.8401 4.25197 11.8279 3.87461 11.7186C3.49725 11.6093 3.1536 11.4065 2.87551 11.129C2.59743 10.8515 2.39391 10.5083 2.28383 10.1311C2.17375 9.75401 2.16068 9.3552 2.24582 8.97167C1.9133 8.76123 1.6394 8.47011 1.4496 8.12538C1.25981 7.78066 1.16028 7.39353 1.16028 7.00001C1.16028 6.60648 1.25981 6.21936 1.4496 5.87463C1.6394 5.5299 1.9133 5.23878 2.24582 5.02834Z" fill="#606060"/>
<path d="M5.25 7.00001L6.41667 8.16668L8.75 5.83334" stroke="white" stroke-linecap="round" stroke-linejoin="round"/>
</svg>
